<svg width="22" height="22" fill="none" xmlns="http://www.w3.org/2000/svg"><path d="M20.835 8.557a1.916 1.916 0 01-.494-1.577l.073-.531c.217-1.59-.807-3.055-2.332-3.331l-.509-.094a1.814 1.814 0 01-1.292-.973l-.243-.472C15.31.16 13.655-.401 12.264.307l-.465.234a1.748 1.748 0 01-1.598 0L9.74.305C8.349-.401 6.69.157 5.965 1.576l-.243.472a1.812 1.812 0 01-1.292.973l-.51.094c-1.525.277-2.548 1.74-2.331 3.331l.072.531c.08.582-.1 1.156-.493 1.577l-.36.384a3.025 3.025 0 000 4.116l.36.386c.393.421.573.995.493 1.577l-.072.531c-.217 1.59.806 3.055 2.331 3.331l.51.094a1.814 1.814 0 011.292.974l.243.472c.514 1.003 1.491 1.577 2.515 1.577.421 0 .853-.1 1.259-.306l.462-.23a1.749 1.749 0 011.598 0l.462.235c1.39.706 3.048.148 3.774-1.271l.243-.472a1.812 1.812 0 011.292-.974l.51-.093c1.525-.277 2.548-1.74 2.331-3.331l-.072-.531c-.08-.582.1-1.156.493-1.577l.36-.384a3.024 3.024 0 000-4.116l-.357-.39zm-.385 3.757l-.36.384a3.016 3.016 0 00-.775 2.472l.072.531c.14 1.014-.514 1.947-1.486 2.124l-.509.094a2.836 2.836 0 00-2.026 1.529l-.243.472c-.463.904-1.52 1.263-2.407.812l-.462-.236a2.74 2.74 0 00-2.508 0l-.462.236c-.887.451-1.944.094-2.407-.812l-.243-.472a2.846 2.846 0 00-2.026-1.529l-.51-.094c-.971-.177-1.625-1.11-1.485-2.124l.072-.53a3.005 3.005 0 00-.776-2.473l-.359-.387a1.929 1.929 0 010-2.625l.36-.384c.615-.66.899-1.563.775-2.472l-.072-.531c-.14-1.014.514-1.947 1.486-2.124l.509-.094a2.836 2.836 0 002.026-1.529l.243-.472A1.803 1.803 0 018.48 1.074c.269 0 .543.062.804.194l.462.236a2.739 2.739 0 002.508 0l.462-.236c.887-.451 1.944-.094 2.407.812l.243.472a2.846 2.846 0 002.026 1.529l.51.094c.971.177 1.625 1.11 1.485 2.124l-.072.53a3.005 3.005 0 00.775 2.473l.36.387a1.929 1.929 0 010 2.625z" fill="#fff"/><path d="M15.112 6.733a.505.505 0 00-.731 0l-7.493 7.775a.552.552 0 000 .759c.1.104.232.158.364.158a.506.506 0 00.365-.158l7.493-7.775a.55.55 0 00.002-.759zM8.899 9.581c.563 0 1.124-.222 1.553-.667a2.345 2.345 0 000-3.224 2.145 2.145 0 00-3.107 0 2.3 2.3 0 00-.643 1.612 2.3 2.3 0 00.643 1.612c.43.445.99.667 1.554.667zM8.077 6.45c.227-.236.524-.354.822-.354.297 0 .594.118.822.354.452.47.452 1.236 0 1.706a1.136 1.136 0 01-1.644 0 1.222 1.222 0 01-.342-.853c0-.322.122-.625.342-.853zm3.471 6.636a2.345 2.345 0 000 3.224c.429.445.99.668 1.553.668a2.15 2.15 0 001.554-.668 2.305 2.305 0 00.643-1.612 2.3 2.3 0 00-.643-1.612 2.14 2.14 0 00-3.107 0zm2.375 2.465c-.452.47-1.191.47-1.644 0a1.242 1.242 0 010-1.706 1.14 1.14 0 01.822-.354c.298 0 .595.118.822.354.22.228.341.531.341.853 0 .322-.121.625-.34.853z" fill="#fff"/></svg>