<svg width="31" height="31" viewBox="0 0 31 31" fill="none" xmlns="http://www.w3.org/2000/svg">
<path d="M16.1744 1.26084C16.1414 0.567369 15.5525 0.0319502 14.859 0.0649451C14.1656 0.09794 13.6301 0.686854 13.6631 1.38032L14.9694 28.8352C15.0024 29.5286 15.5913 30.064 16.2848 30.031C16.9783 29.998 17.5137 29.4091 17.4807 28.7157L16.1744 1.26084Z" fill="#FE5716"/>
<path d="M29.3591 15.6505C30.0525 15.6175 30.588 15.0286 30.555 14.3351C30.522 13.6416 29.9331 13.1062 29.2396 13.1392L1.78476 14.4455C1.09129 14.4785 0.555869 15.0674 0.588864 15.7609C0.621858 16.4543 1.21077 16.9898 1.90424 16.9568L29.3591 15.6505Z" fill="#FE5716"/>
<path d="M24.8952 25.2241C25.4089 25.6911 26.2039 25.6533 26.6709 25.1396C27.138 24.6259 27.1001 23.8309 26.5864 23.3638L6.24927 4.87404C5.73558 4.40701 4.94056 4.44484 4.47353 4.95853C4.00651 5.47221 4.04433 6.26724 4.55802 6.73426L24.8952 25.2241Z" fill="#FE5716"/>
<path d="M5.39798 24.3712C4.93095 24.8849 4.96878 25.6799 5.48247 26.1469C5.99615 26.6139 6.79118 26.5761 7.2582 26.0624L25.748 5.72525C26.215 5.21156 26.1772 4.41654 25.6635 3.94951C25.1498 3.48249 24.3548 3.52031 23.8878 4.034L5.39798 24.3712Z" fill="#FE5716"/>
</svg>
